<?xml version="1.0" encoding="utf-8"?>
<!-- Generator: Adobe Illustrator 16.0.4, SVG Export Plug-In . SVG Version: 6.00 Build 0)  -->
<!DOCTYPE svg PUBLIC "-//W3C//DTD SVG 1.1//EN" "http://www.w3.org/Graphics/SVG/1.1/DTD/svg11.dtd">
<svg version="1.1" id="Layer_1" xmlns="http://www.w3.org/2000/svg" xmlns:xlink="http://www.w3.org/1999/xlink" x="0px" y="0px"
	 width="1214.027px" height="134.943px" viewBox="5.467 329.603 1214.027 134.943"
	 enable-background="new 5.467 329.603 1214.027 134.943" xml:space="preserve">
<g>
	<g>
		<path fill="#3B3F3F" d="M97.308,432.08l15.58-7.38c1.367,5.467,4.1,9.567,7.927,12.3c3.827,2.733,9.021,4.374,15.034,4.374
			c5.74,0,10.387-1.641,13.667-4.92c3.28-3.28,5.193-7.653,5.193-13.12c0-7.107-5.74-13.394-17.494-19.134
			c-1.64-0.82-3.007-1.367-3.827-1.913c-13.12-6.561-21.867-12.574-26.24-17.767c-4.374-5.193-6.56-11.753-6.56-19.407
			c0-9.84,3.28-18.04,9.84-24.053c6.56-6.014,15.307-9.293,25.967-9.293c8.747,0,16.126,1.64,22.14,5.193
			c6.013,3.553,10.113,8.473,12.3,15.033l-15.033,8.2c-2.46-3.827-4.92-6.56-7.927-8.473c-2.733-1.64-6.014-2.733-9.84-2.733
			c-5.193,0-9.293,1.367-12.3,4.1c-3.007,2.733-4.647,6.56-4.647,11.207c0,7.38,6.833,14.213,20.227,20.5
			c1.093,0.547,1.913,0.82,2.46,1.094c11.753,5.467,19.954,10.934,24.327,16.127c4.373,5.193,6.56,11.753,6.56,19.68
			c0,11.48-3.554,20.773-10.66,27.334c-7.107,6.833-16.674,10.113-28.701,10.113c-10.113,0-18.313-2.46-24.874-7.106
			C103.594,447.934,99.495,441.101,97.308,432.08z"/>
		<path fill="#3B3F3F" d="M231.243,349.806v111.248h-20.227V349.806h-33.347v-17.767h86.648v17.767H231.243z"/>
		<path fill="#3B3F3F" d="M294.657,403.38v57.674h-19.134V332.039h28.427c8.2,0,14.76,0.547,19.406,1.64
			c4.647,1.093,8.474,3.007,11.754,5.467c3.827,3.007,6.833,7.107,9.021,12.027c2.187,4.92,3.279,10.387,3.279,16.127
			c0,10.387-2.46,18.313-7.38,24.327c-4.92,5.741-12.026,9.293-21.32,10.661l43.188,58.767h-22.96L297.39,403.38H294.657
			L294.657,403.38z M295.75,386.98h3.553c10.66,0,18.041-1.367,21.32-3.827c3.554-2.46,5.193-7.107,5.193-13.667
			c0-7.106-1.913-12.027-5.739-15.033c-3.827-3.007-10.934-4.374-21.047-4.374h-3.553v36.9H295.75z"/>
		<path fill="#3B3F3F" d="M366.271,461.054V332.039h69.701v17.767h-49.475v32.254h49.475v18.313h-49.475v41.548h49.475v18.859
			h-69.701V461.054z"/>
		<path fill="#3B3F3F" d="M446.905,461.054V332.039h69.7v17.767h-49.2v32.254h49.474v18.313h-49.474v41.548h49.474v18.859h-69.974
			V461.054z"/>
		<path fill="#3B3F3F" d="M578.927,349.806v111.248h-20.228V349.806h-33.347v-17.767H612v17.767H578.927z"/>
	</g>
	<g>
		<path fill="#3B3F3F" d="M22.687,360.193c6.56-0.273,12.027-4.92,12.027-12.027c0-6.287-5.193-11.207-11.207-11.207
			c-6.56,0-10.66,4.373-10.934,10.933H8.747c0.547-8.747,5.74-14.213,14.76-14.213c8.2,0,14.76,6.56,14.76,14.76
			c0,5.74-3.28,10.934-8.474,13.394c5.74,2.187,9.293,7.927,9.293,13.94c0,9.567-7.106,16.947-16.673,16.947
			c-8.474,0-15.854-6.013-15.58-14.76h3.553c0.547,6.56,5.193,11.48,12.027,11.48c7.107,0,13.12-6.013,13.12-13.12
			c0-7.38-5.74-12.3-12.847-12.3V360.193"/>
		<path fill="#3B3F3F" d="M77.081,343.52h-0.547l-23.507,33.347v0.547h24.054V343.52 M88.834,377.413v3.28h-7.927v10.933h-3.554
			v-10.933H46.741v-0.547l33.62-47.561h0.547v44.827H88.834"/>
		<polyline fill="#3B3F3F" points="23.78,459.961 20.227,459.961 20.227,406.113 5.467,406.113 5.467,402.833 38.267,402.833 
			38.267,406.113 23.78,406.113 23.78,459.961 		"/>
		<polyline fill="#3B3F3F" points="77.901,427.16 77.901,402.833 80.908,402.833 80.908,459.961 77.901,459.961 77.901,430.44 
			49.747,430.44 49.747,459.961 46.741,459.961 46.741,402.833 49.747,402.833 49.747,427.16 77.901,427.16 		"/>
	</g>
	<g>
		<path fill="#3B3F3F" d="M793.059,356.014c0.719,6.288,0.719,11.677,0.18,18.862c-0.539,4.491-0.898,8.802-2.155,12.575
			c-0.719,1.976-1.258,3.772-1.976,5.21c-1.258,2.156-2.875,3.413-4.852,5.03l-5.389,4.131c-4.132,2.156-8.443,3.772-14.012,4.491
			c-5.21,0.719-10.779,0.359-15.988,0.539c-0.719,8.084-0.719,16.527-0.719,23.713c0,3.772,0.18,6.646,0,10.778
			c-0.18,5.03,0.18,9.701,0,14.73c-4.132,0.898-7.725,2.336-12.036,1.797c-3.413-0.18-5.39-0.898-8.802-1.078
			c-0.719-3.772-0.898-8.264-0.719-13.293c0.18-4.851,0.18-9.701,0-14.552c0-4.132,0.359-7.904-0.18-12.036
			c-0.539-4.49,0-8.981,0-13.473c0.18-4.132,0-7.725,0-11.856c0-3.772,0.539-7.365,0.539-10.958c0-2.875,0-5.389-0.18-8.084
			c0-1.257,0.18-1.976,0.18-3.233c0-0.898-0.18-1.976-0.18-2.875c-0.18-3.413,0.359-7.006,0.18-10.419
			c-0.18-1.976-0.359-3.234-0.18-5.209c0-1.617,0.18-3.234,0-5.21c0-1.976-0.539-3.233-0.539-4.85c0-2.695,0.18-6.108,0-8.982
			c0.539-0.539,0.898-0.359,1.438-0.898c3.771-0.539,9.341,0.359,13.832,0.539c3.413,0,6.467-0.539,9.88,0
			c1.976-0.539,4.491,0,6.827,0c1.976,0.18,3.592-0.18,5.209,0.359c0.539,0,0.898,0.359,1.438,0.359c1.616,0.18,3.233,0,4.67,0.539
			c3.414,0.898,6.467,1.796,9.881,3.233c1.977,0.719,2.515,1.078,4.131,2.515c1.438,1.437,2.336,3.054,3.594,4.491
			c0.719,0.898,1.258,1.437,1.797,2.335c0.897,1.258,1.616,3.054,2.334,5.03C791.801,351.882,792.52,353.858,793.059,356.014z
			 M797.55,384.218c0.898-7.186,1.258-14.91-0.18-21.557c-0.18-1.257-0.359-2.335-0.359-3.593l-0.358-3.233l-0.539-1.796
			c0-0.18,0.18-0.359,0.18-0.18c0.539,0.898,0.718,1.796,1.257,2.694c0.539,1.617,1.258,3.593,1.796,5.749
			c0.719,6.287,0.719,11.676,0.18,18.862c-0.539,4.491-0.897,8.802-2.155,12.575c-0.718,1.976-1.257,3.773-1.976,5.209
			c-1.258,2.156-2.875,3.413-4.851,5.03l-5.39,4.132c-4.131,2.155-8.443,3.772-14.012,4.491c-5.209,0.718-10.778,0.359-15.988,0.538
			c-0.719,8.084-0.719,16.527-0.719,23.713c0,3.772,0.18,6.647,0,10.778c-0.18,4.491,0.18,8.623,0,12.935
			c0,1.258-0.539,1.977-1.796,2.156c-3.413,0.897-6.647,1.976-10.239,1.437c-3.055-0.18-5.03-0.539-7.904-1.078
			c-0.539,0-0.898-0.358-1.078-0.897v-0.18c-0.18-0.359,0-0.539,0.539-0.539h0.359c0.359,0,0.539,0.18,0.539,0.359
			c2.155,0,4.49,0.539,6.646,0.719c2.335,0.18,5.029,0.18,7.006-0.359c1.617-0.539,3.413-1.258,4.67-0.539
			c-0.538-4.491-0.18-8.623-0.18-13.474c0.18-1.976-0.179-3.593-0.179-5.568c0.179-4.132,0.179-7.904,0.179-13.114
			c0-1.437-0.358-3.054-0.358-4.491c0.18-2.155,0.538-4.132,0.358-6.107c0-1.977,0.359-3.593,0.359-5.569
			c0-0.538,0.359-0.538,0.359-1.077c0.18-0.359,0.359-0.539,0.898-0.539c4.132-0.539,8.803,0.18,13.832-0.359
			c6.288-0.539,12.217-2.515,16.527-5.21c2.695-1.976,5.21-3.952,7.904-6.287c2.156-3.413,3.594-7.365,4.312-12.036L797.55,384.218z
			 M767.909,354.577c-5.03-2.695-12.755-1.976-19.401-1.438c0.539,10.779-1.258,19.94,0.18,30.719
			c7.006,1.258,14.371,1.078,19.58-1.617l1.617-2.335c0.18-0.18,0.18-0.718,0.18-1.796c0.18-0.539,0.539-0.539,0.539-1.078
			c0.539-1.258,0.359-2.875,0.359-4.312c0.539-2.156,0.539-4.132,0.719-6.108C771.861,362.481,770.064,358.17,767.909,354.577z
			 M764.676,357.271c0.18,0,0.719,0.359,1.258,1.078c0,0.539-0.18,0.718-0.539,0.718c-3.594-0.18-7.186,0.18-10.6,0.359
			c0.539,7.186-0.359,13.653-0.359,20.659c0,0.539-0.359,0.898-0.898,0.898s-0.897-0.359-0.897-0.898
			c0-3.772,0.358-6.826,0.358-10.958c0-3.413-0.358-6.288,0.18-9.341c0-1.078,0.719-1.796,1.977-1.976
			C758.029,357.271,761.262,357.092,764.676,357.271z"/>
		<path fill="#3B3F3F" d="M881.084,444.577c0,2.156-0.18,4.132-0.719,5.929c0,0.539,0.18,0.719,0.18,1.257
			c0,1.977-0.719,5.749-1.617,5.749c-0.539,0-0.719-0.18-0.898-0.719l-22.275-0.359c-8.623-0.18-18.862,1.438-28.922,1.438
			c-3.772,0-12.036,0.898-14.012-1.078c-0.539-7.725-0.539-15.629-0.539-23.354v-6.107c0-3.413-0.359-6.826-0.359-10.24
			c0-3.413-0.18-13.293,0.719-14.191c-0.18-0.18-0.18-0.359-0.18-0.898c0-0.538,0.18-1.077,0.18-1.616
			c0-5.21-0.719-9.342-0.719-14.551c0-0.898-0.18-1.976,0.359-2.694v-15.09c0-1.976,0.539-8.083-0.359-8.982l0.18-0.539
			c0.18-8.802,0.18-18.144,0.18-26.048c4.131-2.695,11.676-1.796,16.707-1.796c7.006,0,14.012,0.18,21.197,0.18
			c4.131,0,8.443-0.18,12.754-0.18c4.312,0,8.623,0.359,12.935,0.359c0.719,0,1.616-0.18,2.335-0.18
			c2.516,0,2.875,8.982,2.875,11.317c0,2.695,0.18,12.036-3.414,12.036c-2.155,0-4.49-0.18-6.467-0.18h-6.107
			c-3.055,0-5.928-0.359-8.803-0.359c-2.335,0-4.67,0.18-7.006,0.18c-4.851,0-9.521-0.18-14.371-0.18c0,1.257,0,1.796,0.18,1.976
			v0.359c0,5.928-1.078,12.036-1.078,17.964c0,3.593,0.539,6.827,1.438,9.701c4.85,0,10.239-0.359,15.27-0.359
			c2.694,0,5.029,0.179,7.186,0.359c0.898-0.18,1.617-0.359,2.515-0.359c1.437,0,3.413,0.359,5.03,0.359
			c0.719,0,1.617-0.18,2.515-0.18c2.874,0,3.054,7.725,3.054,12.036c0,2.694-0.359,5.749-0.898,9.162
			c-1.257,0.18-2.515,0.18-3.771,0.18c-3.414-0.18-6.288-0.18-9.342-0.18c-1.438,0-2.695,0.359-3.952,0.359
			c-1.976,0-3.772-0.359-5.749-0.359c-3.771,0-7.725,0.18-11.855,0.18c-0.539,5.748-0.719,12.754-0.719,19.76
			c0,3.773-0.18,7.007,0.359,10.42c9.341,0,19.4,0.719,29.461,0.719c3.413,0,7.365,0.18,9.342-0.719
			c0.18,0.18,0.539,0.18,1.257,0.18h1.797c0.718,0,1.077,0,1.257,0.18c0.359-0.359,0.719-0.539,1.078-0.539s0.539,0,0.719,0.18
			C880.545,437.751,881.084,441.164,881.084,444.577z M885.574,449.787c0-1.977-0.18-4.312-0.539-6.646
			c-0.18,0-0.358-0.18-0.358-0.359s0-0.18-0.18-0.359c0-0.539,0.18-0.898,0.538-1.078c0.18-0.18,0.18-0.18,0.359-0.18
			c0.539-0.18,0.898,0.18,1.078,1.078c0.539,3.054,0.898,5.928,0.898,8.623c0,2.155-0.18,4.132-0.719,5.928
			c0,0.539,0.18,0.719,0.18,1.258c0,1.976-0.719,5.748-1.617,5.748c-0.538,0-0.718-0.18-0.897-0.719l-22.276-0.358
			c-8.622-0.18-18.861,1.437-28.922,1.437c-3.413,0-10.599,0.359-13.293-0.539c-0.539-0.539-0.719-0.897-0.898-1.257
			c0-0.539,0.18-0.898,0.719-0.898s0.898,0.359,0.898,0.898v0.18c2.873-0.18,5.748-0.18,8.622-0.18h6.647
			c7.725,0,15.449-1.258,23.174-1.258c8.622,0,17.065,0.359,25.509,0.539C885.035,457.512,885.574,453.919,885.574,449.787z
			 M840.305,379.368c0,0.539-0.359,0.718-0.898,0.718s-0.718-0.18-0.718-0.718v-0.359c0-3.413,0.718-19.761,1.437-19.761
			c0.18,0,0.18,0,0.359,0.18c0.18,0-0.18-1.078,0.359-1.078c1.977,0.179,3.952,0.179,5.928,0.179c4.312,0,8.623-0.179,13.474-0.179
			c3.772,0,7.904,0.179,11.497,0.179h3.772c3.413,0,6.108,0.359,8.982,0.359c0.718-4.132,1.257-7.725,1.257-11.497
			c0-2.874-0.359-5.749-0.898-8.623c-0.179,0-0.358-0.18-0.538-0.359v-0.539c0-0.539,0.18-0.718,0.718-0.539
			c1.977,1.437,2.336,8.982,2.336,11.138c0,2.694,0.18,12.036-3.413,12.036c-2.155,0-4.491-0.179-6.468-0.179h-6.107
			c-3.054,0-5.928-0.359-8.803-0.359c-2.335,0-4.67,0.18-7.006,0.18c-4.85,0-9.521-0.18-14.371-0.18v1.617
			c0.18,0.18,0.18,0.359,0.18,0.719C841.383,368.05,840.305,373.619,840.305,379.368z M841.023,430.565
			c0,0.539-0.359,0.898-0.898,0.898s-0.898-0.359-0.898-0.898v-0.719c0-5.928,0.18-11.317,0.719-17.245
			c0.18-1.258,0.719-1.977,1.977-2.156c2.874-0.539,4.85-0.719,7.904-0.719c0.898,0,1.617,0.18,2.515,0.18
			c0.18,0,0.359-0.359,0.539-0.359c2.694,0,3.772,0.18,5.39,0.359c2.874,0,5.748-0.359,8.623-0.359c2.693,0,4.67,0.18,6.826,0.18
			c2.335,0,1.796-5.029,1.796-7.006c0-3.772-0.18-7.186-0.718-11.317c-0.18,0-0.359-0.18-0.359-0.359v-0.359
			c0-0.898,0.18-1.078,0.718-0.539c1.976,1.617,2.155,7.545,2.155,11.676c0,2.336-0.18,4.851-0.538,7.366
			c-0.18,1.257-0.898,1.976-2.155,1.976h-1.977c-3.413-0.18-6.287-0.18-9.342-0.18c-1.438,0-2.694,0.359-3.951,0.359
			c-1.977,0-3.773-0.359-5.749-0.359c-3.772,0-7.725,0.18-11.856,0.18C841.203,416.733,841.023,423.919,841.023,430.565z"/>
		<path fill="#3B3F3F" d="M973.96,455.715c0,0.539-0.719,0.539-0.539,1.258c-5.21,0-10.419,0.719-15.449,0.18
			c-2.335-0.18-4.671-0.539-6.826-0.539c-0.539-1.796-1.258-3.413-2.156-4.851c-2.155-6.287-5.029-11.677-7.365-18.144
			c-1.257-2.874-2.694-5.389-3.413-8.803l-3.593-9.161c-2.694-7.365-6.467-14.371-9.88-22.096c-0.539-1.437-1.438-2.694-1.617-4.312
			c-0.539-0.179-0.719-1.257-0.898-1.796c-0.18,12.935,0.18,24.611,0.359,37.007c0,2.155,0,4.311,0.18,6.467
			c0,2.335,0.359,4.491,0.359,6.646c0,1.617-0.359,3.233-0.359,4.671c-0.539,4.491-0.539,9.162-0.539,13.652
			c-0.719,0.18-1.077-0.18-1.257,0.539c-6.288,2.156-13.474,1.258-20.479,0c-0.539-1.257-0.719-4.132,0-5.029
			c-0.539-1.258-0.359-3.055-0.359-4.312c0.18-2.336,0.359-4.851,0.18-7.187c-0.18-2.335-0.539-4.49-0.539-6.467
			c-0.18-2.694,0.18-5.029,0.359-7.725c0.18-4.491-0.359-8.264-0.18-13.113v-13.833c0-2.155,0.359-4.311,0.18-6.287
			c-0.18-5.749,0.359-11.856,0.359-18.144c-0.18-13.653-0.719-27.306,0-42.575c5.748-0.898,13.293-1.617,19.581-0.718
			c0.18,0.539,0.359,0.18,0.898,0.359c1.976,3.054,3.054,6.826,4.311,10.419c3.414,5.03,4.851,11.497,7.546,17.066
			c2.155,4.851,4.311,9.521,6.287,14.372c3.772,10.06,7.725,19.581,12.575,28.742l0.718-11.317c0.18-4.132,0-7.725-0.18-11.856
			c0-7.904,0.18-15.988,0-24.072v-4.85c0-7.006-0.18-12.216,0-18.683c7.366-1.258,14.731-1.438,21.378,0.539
			c0.18,4.132,0.18,7.904,0.18,12.036s0.18,8.084,0.18,12.216c-0.18,4.132-0.539,8.263-0.539,12.395
			c0.539,13.653-0.719,28.204-0.18,40.42c0.18,3.054,0,6.287,0,9.7c0.18,6.287,0.18,12.755,0.719,19.042
			C974.14,443.858,973.421,449.787,973.96,455.715z M907.133,460.925c0.359,0,0.539,0,0.719,0.18c0.18,0,0.18,0,0.18,0.18
			c5.569,1.258,12.755,1.796,19.042-0.18c-0.539-1.438,0-2.335,0-3.593v-2.335c0.18-1.258,0-2.875,0.18-4.132
			c0-2.695,0.719-5.569,0.539-8.264c-0.539-4.491-0.359-8.982-0.539-14.192c0-6.467,0-13.473-0.18-19.939
			c0-0.18,0.539-0.359,0.719-0.18c0.539,0.897,0.719,1.976,0.719,3.413c0,6.287,0.18,12.396,0.359,18.862
			c0,2.155,0,4.312,0.179,6.467c0,2.336,0.359,4.491,0.359,6.646c0,1.617-0.359,3.234-0.359,4.671
			c-0.538,4.312-0.538,8.623-0.538,12.935c0,0.539-0.18,0.719-0.719,0.719c-0.539,0.18-0.719,0.718-1.258,0.718
			c-5.928,1.977-12.396,1.258-18.862,0c-0.539-0.179-1.078-0.538-1.258-1.077C906.414,461.284,906.594,460.925,907.133,460.925z
			 M948.271,386.194h-0.718c-1.977-4.132-2.875-7.545-4.851-11.677c-1.258-2.694-2.515-5.749-3.772-8.802
			c-0.719-1.976-1.617-3.772-2.335-5.928c-1.258-3.413-2.516-6.288-3.952-9.701c-0.898-1.796-5.39-11.856-6.468-14.91l1.078-0.539
			c1.976,4.312,4.132,8.443,5.748,13.293v0.18l2.336,5.03c-0.539-1.078,2.874,8.443,6.646,17.066
			c1.258,2.875,1.977,5.569,2.874,7.904c0.898,2.335,1.797,4.132,2.336,5.03C947.553,384.757,947.912,385.655,948.271,386.194z
			 M978.811,461.464c-0.539-4.851-0.18-9.521-0.18-14.012c-0.18-8.443-0.18-15.091-0.719-22.276c0-1.437,0.18-2.694,0.359-4.132
			c0-5.748-0.539-10.778-0.359-16.347c0-12.396,0-27.306,0.539-41.677c0.538-7.904-0.18-15.988,0-23.892h-0.359
			c-0.539-0.18-0.719-0.359-0.719-0.898c-0.18-0.539,0-0.719,0.539-0.539l0.539,0.18c0.897,0,1.437,0.539,1.437,1.617
			c0.18,3.593,0.18,7.006,0.18,10.599c0,4.132,0.18,8.084,0.18,12.216c-0.18,4.131-0.539,8.263-0.539,12.395
			c0.539,13.653-0.719,28.204-0.18,40.419c0.18,3.054,0,6.287,0,9.7c0.18,6.288,0.18,12.755,0.719,19.042
			c0.18,6.288-0.539,12.036,0,17.785c0,1.078-0.719,1.616-2.335,1.616c-4.851,0.18-9.162,0.719-13.653,0.18l-5.568-0.539
			c-0.898,0-1.438-0.358-1.617-1.077l-0.18-0.539c0-0.359,0.18-0.539,0.539-0.539h0.539c0.359,0,0.539,0.18,0.539,0.359
			C964.259,462.362,971.804,462.003,978.811,461.464z"/>
		<path fill="#3B3F3F" d="M1070.067,455.715c0,0.539-0.719,0.539-0.539,1.258c-5.21,0-10.419,0.719-15.449,0.18
			c-2.335-0.18-4.671-0.539-6.826-0.539c-0.539-1.796-1.258-3.413-2.156-4.851c-2.155-6.287-5.029-11.677-7.365-18.144
			c-1.257-2.874-2.694-5.389-3.413-8.803l-3.593-9.161c-2.694-7.365-6.467-14.371-9.88-22.096c-0.539-1.437-1.438-2.694-1.617-4.312
			c-0.539-0.179-0.719-1.257-0.898-1.796c-0.18,12.935,0.18,24.611,0.359,37.007c0,2.155,0,4.311,0.18,6.467
			c0,2.335,0.359,4.491,0.359,6.646c0,1.617-0.359,3.233-0.359,4.671c-0.539,4.491-0.539,9.162-0.539,13.652
			c-0.719,0.18-1.077-0.18-1.257,0.539c-6.288,2.156-13.474,1.258-20.479,0c-0.539-1.257-0.719-4.132,0-5.029
			c-0.539-1.258-0.359-3.055-0.359-4.312c0.18-2.336,0.359-4.851,0.18-7.187c-0.18-2.335-0.539-4.49-0.539-6.467
			c-0.18-2.694,0.18-5.029,0.359-7.725c0.18-4.491-0.359-8.264-0.18-13.113v-13.833c0-2.155,0.359-4.311,0.18-6.287
			c-0.18-5.749,0.359-11.856,0.359-18.144c-0.18-13.653-0.719-27.306,0-42.575c5.748-0.898,13.293-1.617,19.581-0.718
			c0.18,0.539,0.359,0.18,0.898,0.359c1.976,3.054,3.054,6.826,4.311,10.419c3.414,5.03,4.851,11.497,7.546,17.066
			c2.155,4.851,4.311,9.521,6.287,14.372c3.772,10.06,7.725,19.581,12.575,28.742l0.718-11.317c0.18-4.132,0-7.725-0.18-11.856
			c0-7.904,0.18-15.988,0-24.072v-4.85c0-7.006-0.18-12.216,0-18.683c7.366-1.258,14.731-1.438,21.378,0.539
			c0.18,4.132,0.18,7.904,0.18,12.036s0.18,8.084,0.18,12.216c-0.18,4.132-0.539,8.263-0.539,12.395
			c0.539,13.653-0.719,28.204-0.18,40.42c0.18,3.054,0,6.287,0,9.7c0.18,6.287,0.18,12.755,0.719,19.042
			C1070.247,443.858,1069.528,449.787,1070.067,455.715z M1003.24,460.925c0.359,0,0.539,0,0.719,0.18c0.18,0,0.18,0,0.18,0.18
			c5.569,1.258,12.755,1.796,19.042-0.18c-0.539-1.438,0-2.335,0-3.593v-2.335c0.18-1.258,0-2.875,0.18-4.132
			c0-2.695,0.719-5.569,0.539-8.264c-0.539-4.491-0.359-8.982-0.539-14.192c0-6.467,0-13.473-0.18-19.939
			c0-0.18,0.539-0.359,0.719-0.18c0.539,0.897,0.719,1.976,0.719,3.413c0,6.287,0.18,12.396,0.359,18.862
			c0,2.155,0,4.312,0.179,6.467c0,2.336,0.359,4.491,0.359,6.646c0,1.617-0.359,3.234-0.359,4.671
			c-0.538,4.312-0.538,8.623-0.538,12.935c0,0.539-0.18,0.719-0.719,0.719c-0.539,0.18-0.719,0.718-1.258,0.718
			c-5.928,1.977-12.396,1.258-18.862,0c-0.539-0.179-1.078-0.538-1.258-1.077C1002.521,461.284,1002.701,460.925,1003.24,460.925z
			 M1044.378,386.194h-0.718c-1.977-4.132-2.875-7.545-4.851-11.677c-1.258-2.694-2.515-5.749-3.772-8.802
			c-0.719-1.976-1.617-3.772-2.335-5.928c-1.258-3.413-2.516-6.288-3.952-9.701c-0.898-1.796-5.39-11.856-6.468-14.91l1.078-0.539
			c1.976,4.312,4.132,8.443,5.748,13.293v0.18l2.336,5.03c-0.539-1.078,2.874,8.443,6.646,17.066
			c1.258,2.875,1.977,5.569,2.874,7.904c0.898,2.335,1.797,4.132,2.336,5.03C1043.66,384.757,1044.02,385.655,1044.378,386.194z
			 M1074.918,461.464c-0.539-4.851-0.18-9.521-0.18-14.012c-0.18-8.443-0.18-15.091-0.719-22.276c0-1.437,0.18-2.694,0.359-4.132
			c0-5.748-0.539-10.778-0.359-16.347c0-12.396,0-27.306,0.539-41.677c0.538-7.904-0.18-15.988,0-23.892h-0.359
			c-0.539-0.18-0.719-0.359-0.719-0.898c-0.18-0.539,0-0.719,0.539-0.539l0.539,0.18c0.897,0,1.437,0.539,1.437,1.617
			c0.18,3.593,0.18,7.006,0.18,10.599c0,4.132,0.18,8.084,0.18,12.216c-0.18,4.131-0.539,8.263-0.539,12.395
			c0.539,13.653-0.719,28.204-0.18,40.419c0.18,3.054,0,6.287,0,9.7c0.18,6.288,0.18,12.755,0.719,19.042
			c0.18,6.288-0.539,12.036,0,17.785c0,1.078-0.719,1.616-2.335,1.616c-4.851,0.18-9.162,0.719-13.653,0.18l-5.568-0.539
			c-0.898,0-1.438-0.358-1.617-1.077l-0.18-0.539c0-0.359,0.18-0.539,0.539-0.539h0.539c0.359,0,0.539,0.18,0.539,0.359
			C1060.366,462.362,1067.911,462.003,1074.918,461.464z"/>
		<path fill="#3B3F3F" d="M1104.917,356.014c-5.569,2.156-11.317,4.132-16.348,6.826c-2.694-0.898-2.155-4.67-1.976-8.263
			c0-4.132-0.898-7.904,0.538-11.318c0.719,0,0.539,0.719,1.078,0.719c-0.18-0.539-0.539-0.539-0.539-1.078
			c0.898-0.18,1.438-0.898,2.336-1.438l4.67-2.155l6.827-4.312l3.772-1.796c1.257-0.719,3.054-1.617,3.593-2.515
			c6.646,0,12.216,0.719,17.784,0.18c0.719,0.719,0.359,1.437,0.898,2.156c0.18,2.874-0.18,5.749-0.359,8.623
			c-0.18,3.593,0.18,7.186,0.359,10.958c0.539,5.569-0.18,11.317,0.359,17.604c0,0.898-0.18,1.617-0.18,2.515
			c0,3.413,0.359,6.647,0.359,10.06c0.18,1.976-0.18,3.413,0,5.389c0,1.437,0.359,3.054,0.359,4.671
			c0.18,10.778-0.18,20.658-0.18,30.898c0,3.413,0.359,6.826,0.539,9.88c0,3.054-0.359,6.287-0.539,9.162
			c-0.18,4.491-0.359,8.802-0.359,13.113c-0.359,0-0.539,0.359-0.539,0.898c-5.929,0.539-12.036,1.258-18.503,0.539
			c-0.898-0.18-1.797,0.18-2.336-0.359c-0.359-0.359-0.539-1.078-0.539-2.335c0-3.055,0.539-6.288,0-9.701
			c-0.538-6.467-0.179-13.652-0.179-20.12v-19.939c0-3.413,0.179-6.468,0-9.342c0-4.132-0.359-8.084-0.18-12.575v-3.414
			c-0.18-3.593,0.18-6.287,0.18-9.88C1105.636,365.535,1105.636,360.146,1104.917,356.014z M1104.737,354.218
			c0.539,0.539,0.898,0.18,1.437,0.718c0.719,2.875,0.719,5.928,0.898,9.341c0.18,5.749,0.359,12.575,0.18,18.144
			c-0.18,4.132,0,7.904,0,12.036v11.676c0.18,1.438,0,2.875,0,4.312c0.18,2.874,0.18,5.569,0.18,8.443
			c0,5.569-0.359,11.138-0.18,16.348c0.539,6.287,0.539,13.652,0.359,20.658c5.749,0.539,12.575,0,18.862-0.539
			c-0.539-7.006,0.539-13.293,0.719-20.299c0-2.336-0.359-4.491-0.359-6.826c0-4.851-0.18-9.342-0.18-13.474
			c-0.18-3.413,0.18-6.646,0.18-10.06c0.18-11.677-0.359-21.917-0.539-31.977c-0.18-14.371-0.898-26.587-0.18-40.24
			c-4.851,0-10.239-0.18-15.809-0.18c-0.18,0-0.18,0-0.359,0.18c-3.772,1.976-7.365,3.593-10.419,5.928l-11.317,5.749
			c-0.898,6.288-0.18,10.778,0,17.066C1093.24,358.529,1099.527,356.912,1104.737,354.218z M1101.145,364.637
			c0.539-0.18,0.719,0,0.719,0.539s-0.18,0.898-0.719,1.078l-5.03,2.335c-0.719,0.539-1.796,0.539-2.515-0.18
			c-0.359-0.539-0.719-1.437-0.898-2.515c0-0.539,0.18-1.078,0.719-1.258s0.898-0.18,1.077,0.359v1.976
			c0,0.18,0.18,0.359,0.539,0.359C1097.013,366.074,1098.809,365.535,1101.145,364.637z M1112.282,462.183
			c0-0.539,0.18-0.898,0.719-0.898h0.18c0.538,0,0.718,0.18,0.718,0.719c0,0.18,0,0.18,0.18,0.18c5.569,0.539,11.856,0,18.145-0.539
			c0.359,0,0.539-0.18,0.539-0.539c-0.539-7.006,0.538-12.755,0.718-19.761c0-2.335-0.359-4.491-0.359-6.826
			c0-4.851-0.18-9.342-0.18-13.474c-0.179-3.413,0.18-6.646,0.18-10.06c0.18-11.677-0.358-21.916-0.538-31.976
			c-0.18-14.372-0.898-26.228-0.18-39.88c0-0.18-0.18-0.359-0.359-0.359h-0.359c-0.539,0-0.719-0.18-0.539-0.719
			c0-0.539,0.18-0.718,0.719-0.718h0.18c0.897,0,1.257,0.179,1.257,0.539c0.18,0.18,0.18,0.18,0.18,0.359
			c0.18,0.898,0.359,1.796,0.359,2.335c0,2.335-0.18,4.67-0.359,7.365c-0.18,3.593,0.18,7.186,0.359,10.958
			c0.539,5.569-0.18,11.317,0.359,17.605c0,0.898-0.18,1.617-0.18,2.515c0,3.413,0.359,6.646,0.359,10.06
			c0.18,1.976-0.18,3.413,0,5.389c0,1.437,0.359,3.054,0.359,4.67c0.18,10.778-0.18,20.659-0.18,30.898
			c0,3.413,0.359,6.826,0.539,9.88c0,3.055-0.359,6.288-0.539,9.162c-0.18,4.312-0.359,8.443-0.359,12.575
			c0,0.539-0.359,0.359-0.359,0.898c-0.359,0.358-0.539,0.538-0.719,0.538c-5.748,0.539-11.677,1.258-17.964,0.539
			c-0.719-0.18-1.438,0-2.155-0.18c-0.18,0-0.359-0.18-0.359-0.359L1112.282,462.183z"/>
		<path fill="#3B3F3F" d="M1150.007,439.728c-3.413-7.904-2.155-18.324-2.694-28.563c-0.18-4.132-0.539-8.264-0.359-12.036
			c0.18-7.904,0.18-15.808,0-23.892c0-4.851-0.539-9.162,0-13.473c0.18-2.156,0.719-4.132,0.898-6.108
			c0.539-1.976,0.359-3.952,0.898-5.928c0.538-1.437,1.257-3.233,1.976-4.671c0.898-2.155,2.515-4.311,3.772-6.287
			c2.156-1.976,4.132-3.593,6.826-5.03c1.977-1.257,4.851-2.155,8.623-2.874h0.18c0,0,0-0.18,0.18-0.359
			c6.646-0.898,13.832-1.617,19.761,0.359c0.539,0.18,1.077,0.539,1.796,0.719l1.977,0.359c0.539,0.18,1.078,0.719,1.616,0.898
			c0.539,0.539,1.258,0.539,1.797,0.718c1.258,0.539,1.796,1.438,3.054,1.976c0.539,0.898,1.797,1.258,2.515,2.156
			c3.772,4.132,7.725,9.341,8.623,15.988c1.438,12.216,1.258,24.251,1.078,36.467c0,2.695,0,5.749,0.18,8.623
			c0.539,6.288,0.719,12.216,0.18,18.503c0,1.977-0.18,3.414-0.18,5.03c0,1.438,0.359,3.054,0.359,4.491
			c0,4.132-1.078,7.545-1.617,10.958c-1.976,3.413-3.413,7.006-6.287,9.88c-2.694,2.875-5.21,5.21-9.342,6.827
			c-5.748,2.335-11.317,4.491-19.042,3.593l-3.413-0.539c-1.976-0.539-3.593-0.18-4.851-1.438c-0.897,0-1.976-0.539-2.694-0.359
			c-1.438-1.257-3.593-1.796-5.03-3.054c-2.155-1.616-4.67-3.233-6.287-5.568C1152.522,444.937,1151.624,442.422,1150.007,439.728z
			 M1148.93,427.691l1.437,8.084c0.539,1.437,0.898,2.874,1.617,4.131c1.437,2.695,2.515,5.21,4.491,7.187
			c1.077,1.437,2.694,2.874,4.85,4.132c3.054,2.155,5.749,3.593,9.881,4.311c2.155,0.18,3.952,0.898,6.287,1.078
			c7.186,0.539,12.935-1.616,18.503-3.952c4.132-1.616,6.647-4.671,9.342-7.545c0.539-1.258,1.257-1.976,1.976-2.874
			c0.539-1.617,1.617-2.874,2.336-4.312l0.359-1.976c0.897-2.695,1.257-5.569,1.437-8.264c0-1.977-0.18-4.132-0.359-6.288
			c0-4.312,0.719-8.442,0.539-12.574c0-1.977-0.359-3.952-0.359-6.108c0-1.976-0.539-3.952-0.359-5.928
			c0-0.719,0.18-1.438,0.18-2.156c-0.539-6.467-0.719-15.09-0.18-23.533c0-4.851-0.359-9.88-0.897-14.012l-0.539-4.491
			c-1.438-6.288-5.21-10.779-8.803-14.911c-2.335-1.437-4.671-2.335-6.826-3.593c-4.312-2.694-9.881-3.413-15.449-2.874
			c-4.132,0.18-7.725,0.539-11.138,1.796c-1.438,0.539-3.054,1.078-4.491,1.796c-2.694,1.257-3.952,2.515-5.929,4.132
			c-1.976,1.617-2.874,3.593-4.131,5.569c-0.898,1.257-1.438,2.515-2.336,4.491c-0.539,0.719-0.359,3.054-0.898,4.671l-0.538,4.312
			c-1.258,7.365-0.539,16.167-0.359,23.354c0,1.617,0.18,3.233,0.359,4.85c0,1.437-0.18,2.875-0.18,4.85
			c-0.18,1.976,0,4.132-0.18,6.108c-0.539,6.287,0.538,12.215,0.359,19.581C1148.93,420.326,1148.75,423.919,1148.93,427.691z
			 M1168.15,377.93c0-3.413,0.18-6.826,0-10.239c-0.179-3.414-0.538-6.827,0.18-9.88c0.539-1.976,1.078-2.335,1.977-3.593
			l1.617-1.617l1.077-0.359l2.874-1.796c5.569-1.796,13.833,1.796,15.27,6.646c0.719,1.976,0.719,4.491,0.898,7.186
			c0.539,7.366-0.359,14.731-0.18,21.737c0.18,1.976,0.359,4.312,0.359,6.647c0,4.851,0,8.443-0.18,12.755
			c-0.539,6.467,0,13.652,0,19.4c0,1.438,0.18,3.055,0,3.772c-0.18,0.719-1.437,2.336-1.976,3.234l-1.078,1.257
			c-0.898,1.258-1.796,2.156-3.054,3.054c-0.359,0-1.078,0.359-1.977,0.898c-2.335,0.719-5.748,0.539-8.084-0.18
			c-1.437-0.539-2.155-1.437-3.413-1.976c-0.538-1.438-2.335-2.694-2.874-4.312c-0.719-1.438-0.719-3.952-0.898-5.929
			c-0.18-1.976-0.359-4.131-0.359-6.107c0-0.898,0.359-1.976,0.359-2.874c-0.18-3.413-0.539-6.288-0.539-9.701
			c0-1.257,0.18-2.335,0-3.772C1167.612,394.817,1168.15,386.553,1168.15,377.93z M1169.408,376.853
			c-0.539,9.162,0,18.862,0.18,28.384c0,2.155,0.18,3.413,0.18,5.389c0.539,4.851,0.18,8.982,0.359,13.833
			c0.18,1.976,0.18,4.131,0.719,5.568l1.796,2.515c0.719,0.898,1.438,1.797,2.156,2.336c2.874,1.976,7.904,1.257,10.239-0.18
			c1.977-1.258,3.952-3.593,4.671-5.569c1.258-2.874,0.539-5.568,0.539-8.981c0-2.336-0.18-4.491-0.18-6.468
			c-0.18-7.904,0.719-16.167,0.18-23.173c-0.539-8.084,0.359-19.761-0.18-27.485c0-1.976,0-3.952-0.539-5.209
			c-0.539-1.258-1.977-3.054-3.233-3.952c-1.977-1.617-5.569-2.695-8.264-2.515c-3.054,0.18-7.365,3.413-8.264,6.108
			c-0.539,1.437-0.539,3.952-0.539,6.108C1169.229,368.409,1169.588,372.361,1169.408,376.853z M1170.307,460.745h0.898l1.437,0.359
			l3.593,0.539h0.539c0.18,0,0.539,0.18,0.719,0.18h0.539c1.976,0.18,3.593,0.898,5.748,1.077
			c7.187,0.539,12.935-1.616,18.504-3.951c4.132-1.617,6.287-4.312,8.981-7.187l0.539-0.897l1.438-1.977l0.539-0.898
			c0.538-1.257,1.257-1.976,1.976-3.233c0.18-0.18,0.18-0.539,0.18-1.077l0.359-1.438c0.898-2.694,1.258-5.569,1.438-8.264
			c0-1.976-0.18-4.132-0.359-6.287c0-4.312,0.718-8.443,0.539-12.575c0-1.977-0.359-3.952-0.359-6.107
			c0-1.977-0.539-3.952-0.359-5.929c0-0.719,0.18-1.438,0.18-2.155c-0.539-6.467-0.719-15.09-0.18-23.533
			c0-4.851-0.359-9.88-0.898-14.012l-0.539-4.312c0-0.18,0-0.18-0.18-0.359c-0.18-0.359-0.18-0.898-0.18-1.437
			c0-1.257-0.18-2.515-0.359-3.952v-0.18c-0.18-0.539,0.359-0.359,0.359-0.18c1.258,2.156,1.797,4.312,2.336,7.006
			c1.437,12.215,1.257,24.251,1.077,36.467c0,2.694,0,5.748,0.18,8.623c0.539,6.287,0.719,12.215,0.18,18.503
			c0,1.976-0.18,3.413-0.18,5.029c0,1.438,0.359,3.055,0.359,4.491c0,3.413-0.719,6.288-1.258,9.162
			c-0.358,1.438-0.718,2.515-1.257,3.413c-1.617,2.874-2.695,5.569-5.39,8.264c-2.694,2.874-5.209,5.209-9.341,6.826
			c-5.749,2.335-11.317,4.491-19.042,3.593l-3.413-0.539c-1.977-0.539-3.234-0.18-4.491-1.077c-0.18-0.18-0.539-0.359-0.898-0.359
			c-0.18,0-0.18-0.18-0.359-0.18c-1.258-0.18-2.335-0.539-3.233-1.078L1170.307,460.745z M1175.696,383.14
			c-0.539,9.162,0,18.862,0.179,28.383c0,2.155,0.18,3.413,0.18,5.389c0.539,4.851,0.18,8.443,0.359,13.294
			c0,0.539-0.359,0.719-0.897,0.359c-0.359-0.539-0.719-1.258-0.898-2.335v-3.414c0-0.897,0.359-1.976,0.359-2.874
			c-0.18-3.413-0.539-6.287-0.539-9.7c0-1.258,0.18-2.336,0-3.772c-0.539-7.365,0-15.629,0-24.252c0-3.413,0.18-6.826,0-10.24
			c-0.18-3.413-0.539-6.826,0.18-9.88c0.539-1.976,1.078-2.335,1.976-3.593l1.078-1.078c0.18-0.18,0.719-0.539,1.438-0.719
			c0,0,0.18-0.18,0.359-0.359l2.155-1.258l1.258-0.539h0.18c0,0,0.18,0,0.538,0l0.539,0.359l0.359,0.359c0.18,0,0,0.359-0.18,0.359
			c-3.054,0.18-7.365,3.413-8.264,6.108c-0.538,1.437-0.538,3.952-0.538,6.108C1175.517,374.697,1175.875,378.649,1175.696,383.14z"
			/>
	</g>
</g>
</svg>
